<svg xmlns="http://www.w3.org/2000/svg" viewBox="0 0 157.7 68.2" preserveAspectRatio="xMidYMin"><style type="text/css">
	.st0{fill:#ACACAC;}
</style><path class="st0" d="M18.5 39.7c-19.3-8.9-17-28.9-17-38.2l34.2 0C35.7 10.9 37.8 30.8 18.5 39.7zM1.5 0L0.1 1.5C0 2.7 0 4.1 0 4.8c-0.1 11 0.6 28 18.4 36.2 9.4-4.4 16.6-11.9 18.4-23.5C38 10.7 37.3 4.3 37.3 0L1.5 0z"/><path class="st0" d="M11.2 24.5c-1.4 1.5-2.7 2.9-3.2 3.4C7.9 28 7.9 28.1 8 28.2c0.1 0.1 0.2 0.2 0.3 0.2 0.1 0 0.1 0.1 0.3-0.1 0.1-0.1 1.6-1.5 3.3-3.2 0 0-0.2-0.1-0.3-0.2C11.4 24.7 11.2 24.5 11.2 24.5z"/><path class="st0" d="M12.1 24.1c0.3 0.3 0.9 0.7 0.9 0.7l-0.3 0.3c-0.1 0.1-0.6-0.1-1-0.5 -0.4-0.4-0.7-0.8-0.6-0.9l0.3-0.3C11.5 23.4 11.8 23.8 12.1 24.1z"/><path class="st0" d="M27.7 27.9c0.3-0.3 0.3-0.5 0.3-0.5l0.3 0.1c0.1 0.1 0 0.5-0.3 0.7 -0.3 0.3-0.7 0.4-0.8 0.3l-0.2-0.3C27.1 28.1 27.4 28.1 27.7 27.9z"/><path class="st0" d="M27.3 27.4c0.2-0.2 0.2-0.4 0.2-0.4l0.2 0.1c0.1 0.1 0 0.3-0.2 0.5 -0.2 0.2-0.5 0.3-0.6 0.2l-0.1-0.2C26.8 27.6 27.1 27.5 27.3 27.4z"/><path class="st0" d="M28.2 11.8l-0.4 0.3c-0.5 0.2-1.6-0.7-2.5-1.5 -0.6-0.5-1.8-1.8-1.4-2.4L24 8.1C23.9 8 23.9 8 23.8 8c-0.1-0.1-0.2-0.1-0.4-0.1 -0.1 0-0.3 0.1-0.3 0.2 0 0.2 0.1 0.6 0.3 0.9 0.2 0.4 0.9 1.5 2.4 2.6 0.7 0.5 1.5 0.9 2 1.1 0.1 0 0.5 0.1 0.6 0 0.2-0.2 0-0.4-0.1-0.7C28.3 11.9 28.3 11.8 28.2 11.8z"/><path class="st0" d="M12.7 6.2c0 0.1 0 0.2 0 0.4 0 0.4 0.3 3.4 2.1 5.5 1.5 1.9 6 7.2 6.7 8.1 0.7 0.8 5.1 6 5.7 6.6 0 0 0.1 0.1 0.1 0.1 0 0-0.1 0.1-0.2 0.2 -0.1 0.1-0.3 0.1-0.3 0.1 0 0-0.1-0.1-0.1-0.1 -0.2-0.2-7.8-7.8-8.6-8.6 -0.7-0.7-4.7-4.5-6.3-5.6 -1.4-0.9-2-1.4-3.6-1.5 0 0-1.1 0-1.2-0.1 0 0 0-0.1 0-0.1C7.7 11 9.2 10.1 10.4 9c1.6-1.6 2.2-2.7 2.3-2.8C12.6 6.2 12.7 6.2 12.7 6.2zM13.8 12.7c-1.6-1.6-2.2-1.9-2.9-2.3 -0.4-0.2-0.7-0.3-0.9-0.2 -0.3 0.1-0.8 0.3-1.1 0.6 -0.2 0.2-0.2 0.3-0.1 0.3 0.1 0.1 0.9 0.2 1.7 0.6 1.3 0.7 3.7 2.4 9 7.8 2.7 2.8 6.9 7.1 6.9 7.1l0.1-0.1c0 0-6.1-6.9-10.9-12C14.9 13.8 14.3 13.2 13.8 12.7z"/><path class="st0" d="M9.1 9.4c-0.7 0.6-1.6 1.1-2.3 1.4 -0.5 0.2-1.2 0-0.7-1 0.1-0.3 0.4-0.6 0.7-1 0.9-1.2 2.6-2.7 4.2-3.6C11.4 5 11.8 4.8 12 4.8c0.4 0 0.4 0.4 0.3 0.7C12.2 6.2 11.1 7.8 9.1 9.4zM9.6 8.5c0.2-0.2 0.8-0.8 1.3-1.4 0.6-0.7 0.9-1.3 0.9-1.3s0.1-0.2 0.1-0.3c0-0.1-0.1-0.1-0.2-0.2 -0.1-0.1-1.4 0.6-2 1.1C9.6 6.5 9.5 6.8 9.4 7 9.3 7.2 9.8 7.7 9.6 8.5 9.5 8.5 9.6 8.5 9.6 8.5z"/><path class="st0" d="M17.9 19c-0.3 0.3-5.3 5.1-5.3 5.1 0.1 0.1 0.3 0.2 0.3 0.2s4.6-4.4 4.9-4.7c0.1-0.1 0.3-0.3 0.4-0.3L17.9 19z"/><path class="st0" d="M27.3 13.1c0.1 0 0.1 0 0.2 0 0.1 0 0.2 0 0.2 0 0 0 0.1-0.1 0-0.1 -0.2 0-0.7-0.1-1.1-0.4 -0.3 0.1-0.8 0.2-1.3 0.5 -0.7 0.3-2.3 1.3-5.5 4.2l0.3 0.3c1.1-1 2.6-2.3 3.4-2.8 1.4-0.9 2.5-1.4 3.2-1.5C26.8 13.2 27.1 13.1 27.3 13.1z"/><path class="st0" d="M24.2 10.8c-0.9-0.9-1.2-1.6-1.3-2.1 0 0 0 0 0 0 0 0 0 0-0.1 0 0 0 0 0 0 0.1 -0.1 0.9 0 1.3-0.4 2.3 -0.3 0.8-0.9 1.8-1.7 2.8 -0.5 0.5-1.3 1.4-2 2.3l0.5 0.6c0.1-0.1 0.2-0.2 0.4-0.4 2.5-2.6 4.6-4.2 5.3-4.8C24.7 11.3 24.4 11 24.2 10.8z"/><path class="st0" d="M16.9 18.1c-1 1.2-2.1 2.3-2.4 2.7C14.3 21 12 23.4 12 23.4s0.1 0.1 0.1 0.2c0.1 0.1 0.2 0.2 0.2 0.2s4.7-4.9 5.1-5.2L16.9 18.1z"/><path class="st0" d="M25 7.6c0 0 0-0.1 0-0.1 -0.2-0.1-0.4-0.1-0.5 0 -0.3 0.3 0.4 1.5 1.5 2.6 1.2 1.1 2.4 1.7 2.7 1.3 0.1-0.1 0.1-0.4-0.1-0.7C27 10.9 25 8.6 25 7.6z"/><path class="st0" d="M30.3 8c-0.2 0.2-0.4 0.6-0.6 0.8 0.2-0.2 0.3-0.6 0.1-1.6 -0.1-0.7-0.2-1-0.3-1.2 -0.1-0.1-0.1-0.1-0.2 0 -0.1 0.1-0.3 0.5-0.3 0.5 0 0.1 0 0-0.3-1 -0.2-0.7-0.3-1.1-0.3-1.4 0-0.1 0-0.2 0-0.3 0-0.1 0-0.1-0.3 0 -0.1 0-1 0.7-1.4 1.6 -0.2 0.5-0.2 1-0.3 0.7 -0.1-0.5-0.1-0.5-0.1-0.5C26 5.7 25 6.2 25 7.5c0 1.2 2.2 3.7 4 3.1 0 0 1.4-0.3 1.4-1.5C30.4 7.9 30.3 8 30.3 8zM29.8 9.5c-0.1 0.1-0.3 0.4-0.7 0.6 -0.4 0.2-1 0.2-1.3 0.1 -1.3-0.4-2.1-1.8-2.1-1.8C24.6 6.8 26 6.1 26.2 6c0 0-0.1 0.6-0.1 0.9 0.1 0.3 0.3 0.6 0.3 0.8 0.1 0.4 0 0.6-0.1 0.8 0 0.1 0.1 0 0.1 0 0 0 0 0 0.1-0.1 0.2-0.1 0.4-0.4 0.3-0.6 -0.1-0.5-0.5-0.9-0.1-1.9 0.3-0.7 0.9-1.3 1-1.3 0.1-0.1 0.2-0.2 0.2-0.1 0 0.1 0.1 0.6 0.2 0.9 0.1 0.3 0.4 1 0.3 1.8 -0.1 0.9-1.5 1.9-1.7 1.9 -0.1 0-0.2 0.1-0.2 0.1 -0.1 0.1 0 0.1 0.1 0.1 0.1 0 0.7-0.1 1.2-0.5 0.4-0.3 0.8-0.7 0.9-1 0.3-0.5 0.4-1.1 0.4-1.2 0-0.1 0.1-0.1 0.1 0 0 0.1 0.1 0.4 0.2 0.6 0 0.1 0.1 0.4 0.1 0.8 0 0.7-0.2 1-0.6 1.3 -0.2 0.2-0.5 0.2-0.7 0.3l-0.1 0c0 0-0.1 0 0 0.1 0 0 0.1 0 0.1 0 0.2 0.1 0.7 0.1 1-0.1 0.1-0.1 0.3-0.2 0.6-0.5 0.1-0.1 0.2-0.3 0.2-0.2C29.9 9 29.9 9.3 29.8 9.5z"/><path class="st0" d="M110.4 2c5.9 0 9.6 5.4 9.6 10.9 0 5.6-3.5 9.1-8 9.1 -6 0-9.6-5.4-9.6-11C102.4 6.2 105.3 2 110.4 2zM110.8 22.9c6.7 0 11.4-4.4 11.4-11.2 0-6.3-4.7-10.7-10.9-10.7 -6.2 0-11.1 4.6-11.1 10.9C100.2 18.3 104.2 22.9 110.8 22.9z"/><path class="st0" d="M128.3 3.6c0-1.1 0.6-1.1 1.7-1.1 2.9 0 5.6 1.2 5.6 4.8 0 3.6-2.8 4.2-4.1 4.2 -1.4 0-3.2 0.1-3.2-0.4V3.6zM134.1 11.7c2.1-0.8 3.7-2.8 3.7-5.1 0-5.7-6.5-5.1-7-5.1 -1.5 0-3.2 0.1-4.9 0.1 -1.5 0-1.4-0.1-1.9-0.1 -0.4 0-0.6 0.2-0.6 0.4 0 1 2.5-0.2 2.5 2.6v14.9c0 2.2-2.1 1.8-2.1 2.6 0 0.2 0.1 0.3 0.3 0.3 1.1 0 2.2-0.1 3.3-0.1 2.4 0 3.1 0.1 3.4 0.1 0.2 0 0.5 0.1 0.5-0.2 0-1-3.1-0.1-3.1-2.6v-6.2c0-0.3-0.2-0.8 0.8-0.8 3.3 0 2.9-0.1 3.9 1.6l3.3 5.1c1.1 1.7 2.3 3.2 4.4 3.2 0.3 0 2.6 0 2.6-0.4 0-0.7-2.1 0.4-4.2-2.9L134.1 11.7z"/><path class="st0" d="M142.7 3.4c-0.8-1.3-2.2-0.9-2.2-1.4 0-0.2 0.2-0.4 0.4-0.4 0.8 0 1.3 0.1 3.3 0.1 1 0 1.8-0.1 2.1-0.1 0.2 0 0.6 0 0.6 0.3 0 0.5-1.4 0.5-1.4 1.4 0 0.5 0.4 0.9 0.5 1.2l3.5 5.7c0.2 0.4 0.4 0.5 0.6 0.5 0.1 0 0.3-0.2 0.6-0.6l3-4.9c0.2-0.3 0.6-0.8 0.6-1.6 0-1.4-2.2-0.8-2.2-1.5 0-0.4 0.3-0.4 0.6-0.4 0.7 0 1.4 0.1 2.1 0.1 0.8 0 1.7-0.1 2.5-0.1 0.2 0 0.3 0.2 0.3 0.4 0 0.3-0.5 0.4-0.7 0.6 -0.8 0.5-1.2 1.3-1.6 2l-4.1 6.4c-0.5 0.7-0.7 0.9-0.7 1.3v7.2c0 2.6 2.4 1.7 2.4 2.6 0 0.3-0.3 0.3-0.7 0.3 -0.4 0-2.1-0.1-3.2-0.1 -1.3 0-2.4 0.1-2.6 0.1 -0.3 0-0.4 0-0.4-0.4 0-0.8 2.3-0.1 2.3-2.1v-7.1c0-0.6-0.4-1.1-0.7-1.5L142.7 3.4z"/><path class="st0" d="M96.9 19.6c0.1 2.5 2.3 1.4 2.3 2.4 0 0.3-0.4 0.3-0.7 0.3 -0.6 0-1.6-0.1-2.8-0.1 -0.9 0-1.8 0.1-2.5 0.1 -0.3 0-0.3-0.1-0.3-0.3 0-0.9 1.9-0.2 1.8-2.4L93.9 8.3c0-0.7-0.1-1.1-0.3-1.1 -0.2 0-0.5 0.3-0.8 0.9l-6.1 12.4c-0.2 0.3-0.6 1.5-0.9 1.5 -0.3 0-0.5-0.6-0.6-0.9L79 7.9c-0.1-0.2-0.2-0.3-0.4-0.3 -0.1 0-0.2 0.1-0.2 0.4l-0.9 10.3c-0.1 3.9 2.6 2.6 2.6 3.7 0 0.3-0.3 0.3-0.7 0.3 -0.4 0-1.7-0.1-2.6-0.1 -1.5 0-2 0.1-2.6 0.1 -0.2 0-0.3-0.1-0.3-0.4 0-1 1.9 0.2 2.1-2.9 0.4-4.8 0.7-7.9 0.7-11 0-6.9-2.3-5.3-2.3-6.3 0-0.3 0.2-0.3 0.5-0.3 0.5 0 1.1 0.1 1.6 0.1 0.5 0 1-0.1 1.6-0.1 0.4 0 0.5 0.5 0.6 0.8l7 14.9c0.3 0.6 0.4 0.9 0.6 0.9 0.1 0 0.4-0.6 0.9-1.6l7-14c0.2-0.3 0.4-1 0.8-1 0.3 0 1.2 0.1 1.4 0.1 0.7 0 0.9-0.1 1.4-0.1 0.2 0 0.3 0.2 0.3 0.4 0 0.9-2.3-0.3-2.2 3.2L96.9 19.6z"/><path class="st0" d="M61.2 10.1c0 1-0.1 1 1.1 1h3.2c3 0 2.3-2.4 3-2.4 0.2 0 0.3 0.3 0.3 0.6 0 1 0 2 0 3 0 0.8 0 1.5 0 2.3 0 0.3-0.1 0.4-0.3 0.4 -0.9 0 0.1-2.6-2.4-2.6h-4.3c-0.6 0-0.5 0.5-0.5 0.9v5.4c0 1.7-0.2 2.4 2.2 2.4 6.8 0 7.8-3 8.1-3 0.2 0 0.2 0.3 0.2 0.4 0 1.1-0.8 2.1-1.5 2.9 -0.9 1.1-1.6 1-2.9 1 -2.2 0-4.4-0.2-6.7-0.1 -1.2 0-2.4 0.1-3.6 0.1 -0.3 0-0.4-0.1-0.4-0.3 0.1-0.4 0.4-0.3 1.3-0.8 0.8-0.4 0.8-1.2 0.8-2.6V5.3c0-1.3 0-2.7-1.6-3 -0.2-0.1-0.9-0.1-0.9-0.5 0-0.2 0.2-0.4 1-0.4 5.5 0 7 0.1 8.3 0.1 0.6 0 3.3-0.1 4.2-0.1 0.2 0 0.3 0.3 0.3 0.6 0 3.3-0.4 3.5-0.6 3.5 -0.7 0-0.2-1.4-0.7-2.1 -0.8-1-3.8-0.8-5-0.8 -2.8 0-2.8-0.1-2.8 1.9V10.1z"/><path class="st0" d="M60.6 37.6c0 0.8-0.1 1.3 0.9 1.3 3.4 0 3.2-1.8 3.7-1.8 0.1 0 0.2 0 0.2 0.3 0 1.1-0.8 2.2-1.9 2.2 -2.1 0-2.8-0.1-3.5-0.1 -0.4 0-1 0.1-1.7 0.1 -0.2 0-0.3-0.1-0.3-0.1 0-0.6 1 0.1 1-1.6v-6.5c0-1.2-1.5-0.8-1.5-1.3 0-0.1 0.1-0.2 0.4-0.2 0.5 0 1.3 0.1 1.9 0.1 1.2 0 1.3-0.1 1.5-0.1 0.3 0 0.4 0 0.4 0.2 0 0.5-1 0-1 1.1V37.6z"/><path class="st0" d="M69.7 37.9c0 1.7 1.5 1.1 1.5 1.5 0 0.1-0.1 0.2-0.4 0.2 -0.5 0-1-0.1-2.1-0.1 -0.6 0-1.2 0.1-1.5 0.1 -0.1 0-0.2-0.1-0.2-0.2 0-0.5 1-0.1 1-1.4v-6.5c0-1.2-1.5-0.9-1.5-1.3 0-0.2 0.3-0.2 0.5-0.2 0.5 0 1.1 0.1 1.5 0.1 0.5 0 1-0.1 1.8-0.1 0.4 0 0.5 0 0.5 0.2 0 0.5-1 0-1 1.3V37.9z"/><path class="st0" d="M74.6 32c0-1.9-1.4-1.1-1.4-1.8 0-0.2 0.2-0.2 0.2-0.2 0.1 0 0.2 0.1 0.8 0.1 1.2 0 2.3-0.1 3.5-0.1 3.3 0 3.4 2 3.4 2.3 0 0.9-0.5 1.6-1.5 1.9v0c1.7 0.4 2.2 1.2 2.2 2.4 0 1.8-1.3 3-3.5 3 -2 0-2.7-0.1-3.4-0.1 -0.3 0-0.7 0.1-1 0.1 -0.3 0-0.5 0-0.5-0.2 0-0.5 1.2-0.1 1.2-1.4V32zM76.3 33.4c0 0.7 0.1 0.7 0.9 0.8H78c1 0 1.4-0.5 1.4-1.5 0-1.3-1-2.1-2.2-2.1 -0.9 0-1 0.5-1 1.3V33.4zM76.3 37.4c0 1.3 0.4 1.7 1.7 1.7 1.3 0 2-0.9 2-2.2 0-0.8-0.4-2-2.9-2 -0.8 0-0.8 0.3-0.8 1.1V37.4z"/><path class="st0" d="M84.8 31.7c0-1.5-1.5-1-1.5-1.5 0-0.1 0.1-0.2 0.3-0.2 0.6 0 0.7 0.1 1.6 0.1 0.9 0 1.8-0.1 2.8-0.1 3 0 3.3 1.9 3.3 2.6 0 0.9-0.4 1.4-0.8 1.7 -0.4 0.3-0.8 0.4-0.8 0.6 0 0.1 1.1 2.1 2 3.8 0.1 0.2 0.4 0.2 0.5 0.2 0.1 0 0.3-0.1 0.4-0.1 0.1 0 0.2 0.1 0.2 0.2 0 0.4-0.9 0.7-1.4 0.7 -1.1 0-1.5-0.9-1.9-1.7l-1.1-2.2c-0.3-0.6-0.5-0.7-1.1-0.7 -0.7 0-0.6 0.1-0.6 0.6V38c0 1.5 1.4 0.9 1.4 1.4 0 0.1-0.1 0.2-0.4 0.2 -0.2 0-0.6-0.1-1.2-0.1 -0.7 0-1.4 0.1-2.1 0.1 -0.1 0-0.4 0-0.4-0.2 0-0.4 1.1 0 1.1-1.7V31.7zM86.5 34.1c0 0.3 0.5 0.3 0.9 0.3 2.1 0 2.2-0.8 2.2-1.6 0-1.3-0.8-2.3-2.1-2.3 -0.5 0-0.9 0-0.9 0.8V34.1z"/><path class="st0" d="M96.8 36.3c-0.2 0-0.5 0.1-0.8 1 -0.1 0.3-0.3 0.7-0.3 1.1 0 1 1.5 0.8 1.5 1.1 0 0.3-0.4 0.2-0.7 0.2 -0.4 0-0.8-0.1-1.3-0.1 -0.4 0-0.8 0.1-1.2 0.1 -0.2 0-0.4 0-0.4-0.1 0-0.3 0.7-0.2 1-1l3.7-8.3c0.1-0.2 0.2-0.5 0.3-0.5 0.1 0 0.1 0 0.3 0.4l3.7 8.3c0.4 1 1.2 0.4 1.2 0.9 0 0.2-0.1 0.2-0.5 0.2 -0.5 0-0.9-0.1-1.8-0.1 -0.6 0-1.1 0.1-1.5 0.1 -0.2 0-0.4 0-0.4-0.2 0-0.4 1-0.2 1-1.1 0-0.3-0.1-0.5-0.2-0.9 -0.4-1.1-0.5-1.2-0.9-1.2H96.8zM99.1 35.5c0.2 0 0.4 0 0.4-0.1 0-0.2-0.1-0.3-0.1-0.5l-1.1-2.5c-0.1-0.1 0-0.1-0.1-0.1 0 0-0.1 0-0.2 0.2l-1 2.4c-0.1 0.2-0.1 0.3-0.1 0.5 0 0.1 0.2 0.1 0.4 0.1H99.1z"/><path class="st0" d="M106.2 31.7c0-1.5-1.5-1-1.5-1.5 0-0.1 0.1-0.2 0.3-0.2 0.6 0 0.7 0.1 1.6 0.1 0.9 0 1.8-0.1 2.8-0.1 3 0 3.3 1.9 3.3 2.6 0 0.9-0.4 1.4-0.8 1.7 -0.4 0.3-0.8 0.4-0.8 0.6 0 0.1 1.2 2.1 2.1 3.8 0.1 0.2 0.4 0.2 0.5 0.2 0.1 0 0.3-0.1 0.4-0.1 0.1 0 0.2 0.1 0.2 0.2 0 0.4-0.9 0.7-1.4 0.7 -1.1 0-1.5-0.9-1.9-1.7l-1.1-2.2c-0.3-0.6-0.6-0.7-1.2-0.7 -0.7 0-0.6 0.1-0.6 0.6V38c0 1.5 1.4 0.9 1.4 1.4 0 0.1-0.1 0.2-0.4 0.2 -0.2 0-0.6-0.1-1.2-0.1 -0.7 0-1.4 0.1-2.1 0.1 -0.2 0-0.4 0-0.4-0.2 0-0.4 1.1 0 1.1-1.7V31.7zM107.8 34.1c0 0.3 0.5 0.3 0.9 0.3 2.1 0 2.2-0.8 2.2-1.6 0-1.3-0.8-2.3-2.1-2.3 -0.5 0-0.9 0-0.9 0.8V34.1z"/><path class="st0" d="M118.7 37.9c0 1.7 1.5 1.1 1.5 1.5 0 0.1-0.1 0.2-0.4 0.2 -0.5 0-1-0.1-2.1-0.1 -0.6 0-1.2 0.1-1.5 0.1 -0.1 0-0.2-0.1-0.2-0.2 0-0.5 1-0.1 1-1.4v-6.5c0-1.2-1.5-0.9-1.5-1.3 0-0.2 0.3-0.2 0.5-0.2 0.5 0 1.1 0.1 1.5 0.1 0.5 0 1-0.1 1.8-0.1 0.4 0 0.5 0 0.5 0.2 0 0.5-1 0-1 1.3V37.9z"/><path class="st0" d="M125.2 33.5c0 0.6 0 0.7 0.6 0.7h0.9c1.2 0 1.2-1.3 1.5-1.3 0.1 0 0.2 0 0.3 0.3l0.1 2.4c0 0.2 0.1 0.7-0.2 0.7 -0.4 0-0.1-1.4-1.5-1.4h-1c-0.6 0-0.6 0.2-0.6 1v1.7c0 0.8-0.1 1.3 0.9 1.3 3.4 0 3.2-1.8 3.7-1.8 0.1 0 0.1 0 0.1 0.3 0 1.1-0.8 2.2-1.9 2.2 -2.1 0-2.9-0.1-3.6-0.1 -0.4 0-1 0.1-1.7 0.1 -0.2 0-0.3-0.1-0.3-0.1 0-0.6 1 0.1 1-1.6v-6.4c0-1.2-1.5-0.8-1.5-1.3 0-0.1 0.1-0.2 0.3-0.2 0.6 0 1.5 0.1 3.6 0.1 1 0 1.9-0.1 3.1-0.1 0.2 0 0.3 0.1 0.3 0.3l0.1 1.4c0 0.2 0.1 0.6-0.2 0.6 -0.6 0 0.4-1.6-2.2-1.6 -1.7 0-1.7 0-1.7 1V33.5z"/><path class="st0" d="M132.3 36.8c0-0.2-0.2-0.6 0.2-0.6 0.2 0 0.2 0.1 0.3 0.3 0.4 1.3 1.3 2.5 2.8 2.5 1.1 0 1.9-0.7 1.9-1.7 0-1.2-0.9-1.3-3.1-2.3 -1.2-0.5-2-1.1-2-2.5 0-1.6 1.1-2.7 2.7-2.7 1.1 0 1.7 0.5 2.1 0.5 0.2 0 0.5-0.2 0.7-0.2 0.2 0 0.2 0.2 0.2 0.5l0.1 1.8c0 0.3 0 0.5-0.3 0.5 -0.3 0-0.5-2.5-2.9-2.5 -0.9 0-1.5 0.5-1.5 1.4 0 0.9 0.8 1.1 2.6 1.9 1.5 0.6 2.4 1.2 2.4 3 0 1.8-1.3 3-3 3 -0.8 0-1.5-0.3-2.3-0.5 -0.3-0.1-0.3-0.2-0.4-0.5L132.3 36.8z"/><path class="st0" d="M146.6 33.3c0-0.3-0.3-0.5-0.3-1.3 0-1.3 1-2.1 2.3-2.1 0.9 0 1.7 0.5 1.9 0.5 0.2 0 0.2-0.2 0.4-0.2 0.1 0 0.1 0.1 0.1 0.3 0 0.7 0.1 1.4 0.2 2.1 0 0.1 0 0.2-0.2 0.2 -0.1 0-0.2-0.1-0.3-0.3 -0.3-1.1-1.1-2.1-2.3-2.1 -0.6 0-1 0.4-1 1 0 1.9 4.5 5.8 4.9 5.8 0.1 0 0.5-0.6 0.5-1.4 0-1.7-1.6-1-1.6-1.5 0-0.1 0.1-0.2 0.3-0.2 0.2 0 0.5 0.1 1.4 0.1 0.7 0 0.9-0.1 1.1-0.1 0.1 0 0.2 0 0.2 0.2 0 0.3-0.5 0.1-0.5 0.6 -0.3 2-0.8 2.6-0.8 2.7 0 0.5 1.5 1.3 1.8 1.3 0.5 0 0.5-0.1 0.7-0.1 0.1 0 0.2 0 0.2 0.2 0 0.2-0.7 0.9-1.7 0.9 -0.8 0-1.8-0.7-2.2-1.1 -0.8 0.7-2.3 1.1-3.4 1.1 -3.1 0-4.1-2.1-4.1-3.3C144.5 34 146.6 33.4 146.6 33.3zM151.4 38.4c0-0.3-3.2-2.2-4.3-4.2 -0.1-0.2-0.3-0.4-0.4-0.4 -0.3 0-1 0.4-1 1.4 0 1.5 1.9 3.7 4 3.7C150.3 38.9 151.4 38.6 151.4 38.4z"/><path class="st0" d="M60.4 53.4c0 1.5 1.4 0.9 1.4 1.3 0 0.1-0.1 0.2-0.4 0.2 -0.5 0-0.9 0-1.9 0 -0.5 0-1.1 0-1.4 0 -0.1 0-0.1-0.1-0.1-0.1 0-0.4 0.9-0.1 0.9-1.3v-5.9c0-1.1-1.4-0.8-1.4-1.2 0-0.2 0.3-0.2 0.4-0.2 0.5 0 1 0 1.4 0 0.4 0 0.9 0 1.6 0 0.4 0 0.4 0 0.4 0.2 0 0.4-0.9 0-0.9 1.1V53.4z"/><path class="st0" d="M64.4 48.6c0-2.4-1.4-1.6-1.4-2.1 0-0.1 0.1-0.2 0.2-0.2 0.2 0 0.5 0 0.7 0 0.3 0 0.6 0 1.3 0 0.4 0 0.2 0.1 0.5 0.3l4.9 5.4c0.2 0.2 0.3 0.3 0.4 0.3 0.1 0 0.1-0.1 0.1-0.5v-4.1c0-1.1-1.5-0.9-1.5-1.3 0-0.1 0-0.2 0.2-0.2 0.2 0 0.6 0 1.4 0 0.8 0 1.2 0 1.3 0 0.2 0 0.2 0.1 0.2 0.2 0 0.4-1 0.1-1 1.4v6.9c0 0.3 0 0.4-0.1 0.4 -0.2 0-0.2-0.1-0.3-0.2l-5.9-6.4c-0.1-0.1-0.2-0.2-0.2-0.2 -0.1 0-0.1 0.1-0.1 0.2v4.2c0 2.4 1.6 1.5 1.6 2.1 0 0.2-0.3 0.2-0.5 0.2 -0.6 0-1 0-1.4 0 -0.4 0-0.7 0-1.1 0 -0.1 0-0.4 0.1-0.4-0.1 0-0.5 1.2-0.3 1.2-1.5V48.6z"/><path class="st0" d="M76.9 49.4c0 0.5 0 0.6 0.5 0.6h0.8c1.1 0 1.1-1.1 1.3-1.1 0.1 0 0.2 0 0.2 0.3l0.1 2.2c0 0.2 0.1 0.6-0.2 0.6 -0.4 0-0.1-1.3-1.3-1.3h-0.9c-0.6 0-0.5 0.1-0.5 0.9v1.8c0 1.4 1.4 1.1 1.4 1.4 0 0.2-0.3 0.2-0.6 0.2 -0.5 0-0.9 0-1.5 0 -0.4 0-0.9 0-1.6 0 -0.2 0-0.2-0.1-0.2-0.1 0-0.6 0.9 0.1 0.9-1.4v-5.7c0-1.1-1.4-0.7-1.4-1.2 0-0.1 0.1-0.2 0.3-0.2 0.5 0 1.4 0 3.3 0 0.9 0 1.7 0 2.8 0 0.2 0 0.2 0.1 0.2 0.2l0 1.2c0 0.2 0.1 0.6-0.2 0.6 -0.6 0 0.4-1.4-2-1.4 -1.5 0-1.5 0-1.5 0.9V49.4z"/><path class="st0" d="M86.4 46.1c2.4 0 4.2 1.6 4.2 4.2 0 1.7-0.7 4.7-4.7 4.7 -2.5 0-4.1-1.7-4.1-4.1C81.9 48.1 83.5 46.1 86.4 46.1zM86.4 54.4c2.1 0 2.8-1.7 2.8-3.7 0-2.7-1.5-4.1-3.1-4.1 -2.1 0-2.7 1.7-2.7 3.5C83.4 51.9 84.2 54.5 86.4 54.4z"/><path class="st0" d="M93.1 47.8c0-1.4-1.3-0.9-1.3-1.4 0-0.1 0.1-0.2 0.3-0.2 0.6 0 0.7 0 1.4 0 0.8 0 1.7 0 2.5 0 2.7 0 2.9 1.7 2.9 2.3 0 0.8-0.4 1.2-0.7 1.5 -0.4 0.3-0.7 0.4-0.7 0.5 0 0.1 1 1.8 1.9 3.4 0.1 0.2 0.3 0.2 0.4 0.2 0.1 0 0.2-0.1 0.4-0.1 0.1 0 0.2 0.1 0.2 0.2 0 0.4-0.8 0.6-1.3 0.6 -1 0-1.4-0.8-1.7-1.5l-1-1.9c-0.3-0.5-0.5-0.6-1.1-0.6 -0.6 0-0.6 0.1-0.6 0.5v2.1c0 1.3 1.2 0.8 1.2 1.2 0 0.1-0.1 0.2-0.4 0.2 -0.2 0-0.5 0-1.1 0 -0.7 0-1.3 0-1.9 0 -0.1 0-0.4 0-0.4-0.2 0-0.4 1 0 1-1.5V47.8zM94.6 49.9c0 0.3 0.5 0.3 0.8 0.3 1.9 0 1.9-0.7 1.9-1.4 0-1.2-0.7-2.1-1.9-2.1 -0.5 0-0.8 0-0.8 0.7V49.9z"/><path class="st0" d="M103.2 52.8c-0.1 2.1 1.3 1.4 1.3 1.9 0 0 0 0.2-0.3 0.2 -0.4 0-0.7 0-1.3 0 -0.6 0-1 0-1.2 0 -0.2 0-0.2-0.1-0.2-0.2 0-0.4 1-0.1 1.1-1.4l0.2-4.9c0.1-2-1.2-1.4-1.2-2 0-0.1 0.1-0.2 0.1-0.2 0.2 0 0.3 0 0.7 0 0.3 0 0.7 0 1.1 0 0.1 0 0.3 0 0.4 0.4l2.7 5.9c0 0.1 0.1 0.2 0.2 0.2 0.1 0 0.2-0.2 0.2-0.3l2.8-5.9c0-0.1 0.1-0.2 0.3-0.2 0.3 0 0.5 0 0.7 0 0.2 0 0.5 0 0.8 0 0.3 0 0.4 0 0.4 0.1 0 0.4-1.2 0-1.2 1.4l0.2 5.4c0.1 1.6 1.2 1.1 1.2 1.5 0 0.2-0.2 0.2-0.6 0.2 -0.4 0-0.7 0-1.1 0 -0.8 0-1.1 0-1.4 0 -0.3 0-0.6 0-0.6-0.2 0-0.4 1 0 0.9-1.4l-0.2-3.7c0-0.4 0-0.6-0.1-0.6 0 0-0.2 0.2-0.4 0.6l-2.3 4.8c-0.1 0.2-0.1 0.3-0.3 0.3 -0.2 0-0.2-0.2-0.3-0.3l-2.4-5.3c0-0.1-0.1-0.2-0.1-0.2 -0.1 0-0.1 0.2-0.1 0.3L103.2 52.8z"/><path class="st0" d="M116.1 51.9c-0.2 0-0.5 0-0.7 0.9 -0.1 0.2-0.3 0.7-0.3 1 0 0.9 1.3 0.7 1.3 1 0 0.3-0.4 0.2-0.6 0.2 -0.4 0-0.8 0-1.2 0 -0.4 0-0.7 0-1.1 0 -0.2 0-0.4 0-0.4-0.1 0-0.3 0.6-0.2 0.9-0.9l3.3-7.4c0.1-0.2 0.1-0.4 0.3-0.4 0.1 0 0.1 0 0.3 0.4l3.3 7.5c0.4 0.9 1.1 0.4 1.1 0.8 0 0.2-0.1 0.2-0.4 0.2 -0.4 0-0.8 0-1.6 0 -0.5 0-1 0-1.3 0 -0.2 0-0.4 0-0.4-0.1 0-0.4 0.9-0.2 0.9-1 0-0.3-0.1-0.5-0.2-0.8 -0.4-1-0.5-1.1-0.8-1.1H116.1zM118.1 51.2c0.2 0 0.4 0 0.4-0.1 0-0.2-0.1-0.3-0.1-0.5l-1-2.2c-0.1-0.1 0-0.1-0.1-0.1 0 0-0.1 0-0.1 0.1l-0.9 2.2c-0.1 0.1-0.1 0.3-0.1 0.5 0 0.1 0.2 0.1 0.4 0.1H118.1z"/><path class="st0" d="M125.6 47.6c0-0.6-0.1-0.7-0.6-0.7h-1c-1.4 0-1 1.6-1.6 1.6 -0.3 0-0.2-0.3-0.2-0.4l0.2-1.6c0-0.1 0-0.3 0.2-0.3 1.1 0 1.9 0 3.7 0 1.8 0 2.3 0 3.4 0 0.2 0 0.2 0.2 0.2 0.3l0.1 1.1c0 0.1 0.2 0.6-0.2 0.6 -0.5 0-0.1-1.4-1.5-1.3h-0.9c-0.5 0-0.4 0.1-0.4 0.7v5.5c0 1.5 1.6 1.2 1.6 1.5 0 0.3-0.2 0.3-0.6 0.3 -0.5 0-0.9 0-1.7 0 -0.8 0-1.2 0-1.7 0 -0.2 0-0.4 0-0.4-0.3 0-0.5 1.4 0.1 1.4-1.3V47.6z"/><path class="st0" d="M134.1 53.4c0 1.5 1.4 0.9 1.4 1.3 0 0.1-0.1 0.2-0.4 0.2 -0.5 0-0.9 0-1.9 0 -0.5 0-1.1 0-1.4 0 -0.1 0-0.1-0.1-0.1-0.1 0-0.4 0.9-0.1 0.9-1.3v-5.9c0-1.1-1.4-0.8-1.4-1.2 0-0.2 0.3-0.2 0.4-0.2 0.5 0 1 0 1.4 0 0.4 0 0.9 0 1.6 0 0.4 0 0.4 0 0.4 0.2 0 0.4-0.9 0-0.9 1.1V53.4z"/><path class="st0" d="M141.1 46.1c2.4 0 4.2 1.6 4.2 4.2 0 1.7-0.7 4.7-4.7 4.7 -2.5 0-4.1-1.7-4.1-4.1C136.5 48.1 138.2 46.1 141.1 46.1zM141 54.4c2.1 0 2.8-1.7 2.8-3.7 0-2.7-1.5-4.1-3.1-4.1 -2.1 0-2.7 1.7-2.7 3.5C138 51.9 138.8 54.5 141 54.4z"/><path class="st0" d="M147.6 48.6c0-2.4-1.4-1.6-1.4-2.1 0-0.1 0.1-0.2 0.2-0.2 0.2 0 0.5 0 0.7 0 0.3 0 0.6 0 1.3 0 0.4 0 0.2 0.1 0.5 0.3l4.9 5.4c0.2 0.2 0.3 0.3 0.4 0.3 0.1 0 0.1-0.1 0.1-0.5v-4.1c0-1.1-1.5-0.9-1.5-1.3 0-0.1 0-0.2 0.2-0.2 0.2 0 0.6 0 1.4 0 0.8 0 1.2 0 1.3 0 0.2 0 0.2 0.1 0.2 0.2 0 0.4-1 0.1-1 1.4v6.9c0 0.3 0 0.4-0.1 0.4 -0.2 0-0.2-0.1-0.3-0.2l-5.9-6.4c-0.1-0.1-0.2-0.2-0.2-0.2 -0.1 0-0.1 0.1-0.1 0.2v4.2c0 2.4 1.6 1.5 1.6 2.1 0 0.2-0.3 0.2-0.5 0.2 -0.6 0-1 0-1.4 0 -0.4 0-0.7 0-1.1 0 -0.1 0-0.4 0.1-0.4-0.1 0-0.5 1.2-0.3 1.2-1.5V48.6z"/><path class="st0" d="M59.2 62.5c0-0.5-0.1-0.5-0.5-0.5h-0.5c-1.1 0-0.8 1.3-1.2 1.3 -0.2 0-0.1-0.2-0.1-0.3l0.2-1.3c0-0.1 0-0.2 0.2-0.2 0.9 0 1.2 0 2.6 0 1.4 0 2 0 2.9 0 0.1 0 0.1 0.1 0.2 0.2l0.1 0.9c0 0.1 0.1 0.5-0.1 0.5 -0.4 0-0.1-1.1-1.2-1h-0.8c-0.4 0-0.5 0-0.5 0.5v4.3c0 1.2 1.2 0.9 1.2 1.2 0 0.2-0.2 0.2-0.5 0.2 -0.4 0-0.7 0-1.3 0 -0.6 0-1 0-1.3 0 -0.2 0-0.3 0-0.3-0.2 0-0.4 1.1 0.1 1.1-1.1V62.5z"/><path class="st0" d="M68.9 63.9c0 0.4 0 0.5 0.4 0.5h0.6c0.8 0 0.9-0.9 1-0.9 0.1 0 0.2 0 0.2 0.2l0.1 1.7c0 0.1 0.1 0.5-0.2 0.5 -0.3 0 0-1-1-1h-0.7c-0.4 0-0.4 0.1-0.4 0.7v1.2c0 0.6 0 0.9 0.7 0.9 2.4 0 2.2-1.3 2.6-1.3 0 0 0.1 0 0.1 0.2 0 0.7-0.6 1.5-1.3 1.5 -1.5 0-2 0-2.5 0 -0.3 0-0.7 0-1.2 0 -0.1 0-0.2 0-0.2-0.1 0-0.4 0.7 0.1 0.7-1.1v-4.5c0-0.9-1.1-0.6-1.1-0.9 0-0.1 0.1-0.2 0.2-0.2 0.4 0 1.1 0 2.5 0 0.7 0 1.3 0 2.2 0 0.1 0 0.2 0.1 0.2 0.2l0 0.9c0 0.1 0.1 0.4-0.2 0.4 -0.4 0 0.3-1.1-1.5-1.1 -1.2 0-1.2 0-1.2 0.7V63.9z"/><path class="st0" d="M82.2 63.5c0 0.1 0 0.3-0.1 0.3 -0.2 0-0.2-0.2-0.3-0.3 -0.5-0.9-1.3-1.7-2.4-1.7 -1.4 0-2.2 1.3-2.2 2.6 0 1.3 0.8 3.2 2.6 3.2 1.5 0 2.1-1.3 2.4-1.3 0 0 0.1 0 0.1 0.1 0 0.4-1 1.8-3.1 1.8 -2.8 0-3.2-2.4-3.2-3.2 0-1.6 1-3.7 3.4-3.7 1.2 0 1.9 0.6 2.2 0.6 0.2 0 0.2-0.3 0.3-0.3 0 0 0.1 0 0.1 0.1L82.2 63.5z"/><path class="st0" d="M92.9 66.9c0 1.2 1 0.9 1 1.2 0 0.1-0.1 0.1-0.2 0.1 -0.3 0-0.9 0-1.3 0 -0.3 0-0.7 0-1.2 0 -0.1 0-0.2 0-0.2-0.1 0-0.3 0.7-0.1 0.7-1v-1.7c0-0.4 0-0.5-0.4-0.5h-2.6c-0.4 0-0.5 0.1-0.5 0.5v1.5c0 1.2 1.2 0.8 1.2 1.2 0 0.1 0 0.1-0.3 0.1 -0.4 0-0.7 0-1.4 0 -0.4 0-0.8 0-1.3 0 -0.1 0-0.2 0-0.2-0.1 0-0.4 0.8 0 0.8-1.2v-4.3c0-1-1.1-0.6-1.1-1 0-0.1 0.3-0.2 0.5-0.2 0.3 0 0.6 0 1.1 0 0.6 0 1 0 1.2 0 0.1 0 0.2 0 0.2 0.1 0 0.3-0.7 0-0.7 0.9V64c0 0.3 0 0.4 0.2 0.4h2.8c0.3 0 0.3-0.2 0.3-0.4v-1.3c0-1.1-1.1-0.7-1.1-1 0-0.2 0.1-0.2 0.2-0.2 0.4 0 0.6 0 1.2 0 0.5 0 0.9 0 1.3 0 0.2 0 0.2 0 0.2 0.1 0 0.4-0.7 0-0.7 0.9V66.9z"/><path class="st0" d="M98.8 63.3c0-1.8-1.1-1.2-1.1-1.7 0-0.1 0-0.2 0.2-0.2 0.2 0 0.4 0 0.5 0 0.2 0 0.5 0 1 0 0.3 0 0.2 0.1 0.4 0.2l3.8 4.2c0.1 0.1 0.2 0.2 0.3 0.2 0.1 0 0.1-0.1 0.1-0.4v-3.2c0-0.9-1.2-0.7-1.2-1 0-0.1 0-0.2 0.2-0.2 0.2 0 0.4 0 1.1 0 0.6 0 0.9 0 1 0 0.2 0 0.2 0.1 0.2 0.1 0 0.3-0.8 0.1-0.8 1.1V68c0 0.2 0 0.3-0.1 0.3 -0.1 0-0.2-0.1-0.2-0.1l-4.6-5c-0.1-0.1-0.1-0.1-0.2-0.1 -0.1 0-0.1 0.1-0.1 0.2v3.2c0 1.8 1.2 1.2 1.2 1.6 0 0.1-0.2 0.1-0.4 0.1 -0.5 0-0.8 0-1.1 0 -0.3 0-0.6 0-0.8 0 -0.1 0-0.3 0-0.3-0.1 0-0.4 0.9-0.2 0.9-1.2V63.3z"/><path class="st0" d="M112.6 61.4c1.9 0 3.3 1.2 3.3 3.2 0 1.3-0.6 3.7-3.6 3.7 -1.9 0-3.2-1.3-3.2-3.2C109 63 110.3 61.4 112.6 61.4zM112.5 67.9c1.6 0 2.2-1.3 2.2-2.9 0-2.1-1.2-3.2-2.4-3.2 -1.6 0-2.1 1.3-2.1 2.7C110.2 65.9 110.8 67.9 112.5 67.9z"/><path class="st0" d="M121.8 66.8c0 0.6 0 0.9 0.7 0.9 2.4 0 2.2-1.3 2.6-1.3 0 0 0.1 0 0.1 0.2 0 0.7-0.6 1.5-1.3 1.5 -1.5 0-2 0-2.5 0 -0.3 0-0.7 0-1.2 0 -0.1 0-0.2 0-0.2-0.1 0-0.4 0.7 0.1 0.7-1.1v-4.5c0-0.8-1.1-0.6-1.1-0.9 0-0.1 0.1-0.2 0.3-0.2 0.4 0 0.9 0 1.3 0 0.8 0 0.9 0 1.1 0 0.2 0 0.2 0 0.2 0.1 0 0.4-0.7 0-0.7 0.7V66.8z"/><path class="st0" d="M132.3 61.4c1.9 0 3.3 1.2 3.3 3.2 0 1.3-0.6 3.7-3.6 3.7 -1.9 0-3.2-1.3-3.2-3.2C128.7 63 130 61.4 132.3 61.4zM132.2 67.9c1.6 0 2.2-1.3 2.2-2.9 0-2.1-1.2-3.2-2.4-3.2 -1.6 0-2.1 1.3-2.1 2.7C129.9 65.9 130.5 67.9 132.2 67.9z"/><path class="st0" d="M145.8 63.7c0 0.1-0.1 0.2-0.2 0.2 -0.2 0-0.2-2.1-2.7-2.1 -0.9 0-2.2 0.6-2.2 3 0 1.3 0.7 3 2.2 3 1.7 0 1.7-0.8 1.7-1.4 0-1.5-1.1-0.8-1.1-1.2 0-0.3 0.3-0.2 0.5-0.2 0.5 0 0.9 0 1.3 0 0.4 0 0.7 0 1 0 0 0 0.1 0 0.1 0.1 0 0.4-0.7-0.1-0.7 1.1 0 0.4 0 0.7 0 0.8 0 0.2 0 0.2-0.1 0.2 -0.9 0.5-2 0.9-3 0.9 -2.8 0-3.2-2.4-3.2-3.2 0-1.6 1-3.7 3.4-3.7 1.3 0 2.1 0.6 2.4 0.6 0.2 0 0.2-0.3 0.4-0.3 0.1 0 0.1 0.2 0.1 0.4V63.7z"/><path class="st0" d="M150.9 62.3c-0.4-0.7-1-0.4-1-0.8 0-0.1 0.1-0.1 0.3-0.1 0.2 0 0.4 0 0.9 0 0.4 0 0.8 0 1.4 0 0.1 0 0.2 0.1 0.2 0.1 0 0.2-0.5 0.1-0.5 0.5 0 0.1 0 0.2 0.1 0.4l0.9 1.8c0.2 0.3 0.2 0.4 0.3 0.4 0.1 0 0.1-0.1 0.2-0.3l0.9-1.6c0.2-0.3 0.2-0.5 0.2-0.5 0-0.6-0.9-0.4-0.9-0.7 0-0.1 0.1-0.1 0.2-0.1 0.1 0 0.3 0 0.8 0 0.7 0 0.8 0 1.1 0 0.1 0 0.2 0 0.2 0.1 0 0.3-0.4 0.1-1 1.1l-1.3 2.4c-0.1 0.2-0.1 0.3-0.1 0.6v1.4c0 1.2 1.2 0.5 1.2 1 0 0.1-0.1 0.1-0.3 0.1 -0.1 0-0.2 0-1.4 0 -0.9 0-1.1 0-1.4 0 -0.2 0-0.3 0-0.3-0.1 0-0.4 1 0.1 1-1.1v-1.2c0-0.3 0-0.4-0.2-0.6L150.9 62.3z"/></svg>
