<svg id="medicine" xmlns="http://www.w3.org/2000/svg" viewBox="0 0 381.11 165.04"><defs><style>.cls-1{fill:#004990;}</style></defs><title>LibraryInfoTech_hz_280</title><path class="cls-1" d="M51.65,100C5,78.47,10.6,30.28,10.62,7.76L93.16,7.84C93.14,30.37,98.33,78.57,51.65,100Zm-41-96L7.06,7.8c0,2.69-.1,6.08-0.12,7.74C6.59,42,8.39,83.17,51.44,103.07,74.22,92.52,91.46,74.39,96,46.25,98.62,30,97,14.5,97.06,4.09Z" transform="translate(-6.9 -4.06)"/><path class="cls-1" d="M34,63.2l-7.67,8.21a0.52,0.52,0,0,0-.13.71,2.6,2.6,0,0,0,.66.59,0.55,0.55,0,0,0,.7-0.25c0.15-.16,3.78-3.67,8.08-7.8a4.34,4.34,0,0,1-.81-0.55A8.66,8.66,0,0,1,34,63.2Z" transform="translate(-6.9 -4.06)"/><path class="cls-1" d="M36.23,62.27a13.5,13.5,0,0,0,2.22,1.61l-0.76.73c-0.28.31-1.35-.18-2.38-1.09S33.68,61.58,34,61.27l0.84-.76A10,10,0,0,0,36.23,62.27Z" transform="translate(-6.9 -4.06)"/><path class="cls-1" d="M73.93,71.36a2.25,2.25,0,0,0,.71-1.31l0.75,0.36a1.72,1.72,0,0,1-.66,1.78c-0.69.68-1.63,0.91-1.85,0.67l-0.4-.8A2.2,2.2,0,0,0,73.93,71.36Z" transform="translate(-6.9 -4.06)"/><path class="cls-1" d="M72.8,70.15a2.21,2.21,0,0,0,.59-0.94l0.48,0.33a1.13,1.13,0,0,1-.49,1.21,1.36,1.36,0,0,1-1.36.49l-0.28-.53A2.94,2.94,0,0,0,72.8,70.15Z" transform="translate(-6.9 -4.06)"/><path class="cls-1" d="M75.1,32.47l-0.88.78c-1.2.46-3.93-1.62-6.07-3.51-1.44-1.25-4.31-4.43-3.5-5.72L65,23.65l-0.65-.38a1.55,1.55,0,0,0-.92-0.17,0.62,0.62,0,0,0-.64.46,4.65,4.65,0,0,0,.73,2.23,23,23,0,0,0,5.85,6.38,17.54,17.54,0,0,0,4.89,2.62,1.68,1.68,0,0,0,1.47-.1c0.38-.37,0-1-0.33-1.68A3.86,3.86,0,0,0,75.1,32.47Z" transform="translate(-6.9 -4.06)"/><path class="cls-1" d="M73.36,24.14" transform="translate(-6.9 -4.06)"/><path class="cls-1" d="M71.59,23.35" transform="translate(-6.9 -4.06)"/><path class="cls-1" d="M37.67,19c0,0.26,0,.56,0,0.88,0,0.87.8,8.12,5,13.35,3.61,4.51,14.51,17.5,16.24,19.56s12.32,14.45,13.67,16L72.7,69a1.61,1.61,0,0,1-.46.6,1.44,1.44,0,0,1-.7.29s-0.28-.28-0.33-0.33c-0.38-.45-18.86-18.94-20.66-20.68s-11.31-11-15.23-13.46c-3.4-2.17-4.94-3.39-8.67-3.7a22.16,22.16,0,0,1-2.83-.23,0.14,0.14,0,0,1,.08-0.16A30.81,30.81,0,0,0,32,25.88c4-3.77,5.24-6.42,5.44-6.83C37.44,18.95,37.67,18.92,37.67,19Zm2.61,15.65c-3.84-3.81-5.3-4.7-7-5.44a4.74,4.74,0,0,0-2.06-.58A9,9,0,0,0,28.6,30c-0.5.45-.45,0.66-0.18,0.81a25.9,25.9,0,0,1,4,1.52c3.12,1.66,9,5.73,21.69,18.89,6.47,6.69,16.65,17,16.65,17L71,68.1S56.2,51.48,44.65,39.19C43,37.44,41.56,35.95,40.27,34.66Z" transform="translate(-6.9 -4.06)"/><path class="cls-1" d="M74.79,32.32" transform="translate(-6.9 -4.06)"/><path class="cls-1" d="M28.87,26.78a22.63,22.63,0,0,1-5.66,3.48c-1.17.48-2.83-.05-1.64-2.33a18,18,0,0,1,1.58-2.48,34.36,34.36,0,0,1,10.06-8.67,7.13,7.13,0,0,1,2.74-1c0.95,0.06,1,.86.83,1.62C36.4,19,33.62,22.8,28.87,26.78Zm1.18-2.16c0.42-.37,2-1.94,3.26-3.46a17.19,17.19,0,0,0,2.08-3,1.88,1.88,0,0,0,.18-0.76,0.73,0.73,0,0,0-.38-0.42,15.06,15.06,0,0,0-4.94,2.74A4.25,4.25,0,0,0,29.61,21c-0.13.42,1,1.59,0.25,3.38C29.75,24.64,30,24.67,30.05,24.61Z" transform="translate(-6.9 -4.06)"/><path class="cls-1" d="M37.63,19.49" transform="translate(-6.9 -4.06)"/><path class="cls-1" d="M50.26,49.95c-0.78.73-12.78,12.25-12.78,12.25a7.62,7.62,0,0,0,.68.54s11-10.6,11.84-11.36l0.89-.81Z" transform="translate(-6.9 -4.06)"/><path class="cls-1" d="M72.89,35.75l0.5,0a1.29,1.29,0,0,0,.46-0.09c0.1-.08.17-0.19,0-0.19a8.09,8.09,0,0,1-2.74-.85,21.07,21.07,0,0,0-3.24,1.11c-1.73.77-5.52,3-13.28,10.16l0.61,0.71a92.79,92.79,0,0,1,8.24-6.88A25.43,25.43,0,0,1,71.06,36,14.08,14.08,0,0,1,72.89,35.75Z" transform="translate(-6.9 -4.06)"/><path class="cls-1" d="M65.33,30.1a11.69,11.69,0,0,1-3.15-5s0-.08,0-0.11a0.08,0.08,0,0,0-.12.05,0.73,0.73,0,0,0,0,.14c-0.19,2.29,0,3.26-.94,5.6a25.86,25.86,0,0,1-4.18,6.71c-1.13,1.32-3,3.48-4.8,5.49l1.24,1.47c0.12-.14.51-0.56,1-1a95.69,95.69,0,0,1,12.92-11.6A23.63,23.63,0,0,1,65.33,30.1Z" transform="translate(-6.9 -4.06)"/><path class="cls-1" d="M47.79,47.68c-2.5,2.82-5,5.6-5.74,6.42S36,60.66,36,60.66a2.47,2.47,0,0,0,.3.43c0.17,0.19.46,0.45,0.46,0.45S48.18,49.77,49.05,48.86Z" transform="translate(-6.9 -4.06)"/><path class="cls-1" d="M67.42,22.33c0-.09,0-0.17,0-0.25a1.29,1.29,0,0,0-1.29.12c-0.75.81,0.91,3.57,3.71,6.17s5.69,4,6.44,3.24c0.3-.33.21-1-0.19-1.79C72,30.28,67.42,24.93,67.42,22.33Z" transform="translate(-6.9 -4.06)"/><path class="cls-1" d="M80,23.37c-0.39.46-1.07,1.52-1.48,1.87,0.44-.39.69-1.33,0.21-3.8A13.59,13.59,0,0,0,78,18.57c-0.13-.33-0.32-0.24-0.56,0a9.23,9.23,0,0,0-.76,1.2c-0.05.21,0,0-.81-2.49a11.41,11.41,0,0,1-.7-3.26c0-.3,0-0.6,0-0.83s-0.1-.19-0.61,0a8.77,8.77,0,0,0-3.3,3.86c-0.51,1.3-.55,2.37-0.63,1.72-0.15-1.28-.13-1.26-0.26-1.22a4.77,4.77,0,0,0-3.2,4.72c0,2.85,5.37,8.91,9.74,7.54,0,0,3.31-.63,3.38-3.61S80,23.37,80,23.37ZM79,27.07a4,4,0,0,1-1.72,1.49,5.2,5.2,0,0,1-3.14.3A10.48,10.48,0,0,1,69,24.59c-2.54-4.1.86-5.86,1.15-5.92A5.63,5.63,0,0,0,70,20.93a13.65,13.65,0,0,0,.84,1.91,1.88,1.88,0,0,1-.33,1.83c-0.12.16,0.18,0.07,0.25,0s0.09-.08.2-0.16a1.55,1.55,0,0,0,.76-1.47c-0.3-1.27-1.21-2.06-.13-4.68a10.88,10.88,0,0,1,2.34-3.26c0.24-.17.4-0.37,0.4-0.2s0.28,1.35.42,2.12a11.31,11.31,0,0,1,.83,4.47c-0.19,2.15-3.71,4.51-4.19,4.66a1.9,1.9,0,0,0-.47.25c-0.12.12,0.06,0.15,0.14,0.16a6.86,6.86,0,0,0,2.88-1.16A8.51,8.51,0,0,0,76.2,23a14.13,14.13,0,0,0,1-2.91c0.1-.25.21-0.24,0.24-0.11s0.28,1.07.38,1.56A9.64,9.64,0,0,1,78,23.41a3.43,3.43,0,0,1-3.2,3.72l-0.23,0c-0.09,0-.17,0,0,0.14l0.23,0.1a3,3,0,0,0,2.39-.23,8.15,8.15,0,0,0,1.38-1.11,1.17,1.17,0,0,1,.56-0.49A2.49,2.49,0,0,1,79,27.07Z" transform="translate(-6.9 -4.06)"/><path class="cls-1" d="M273.71,9C288,9,297,21.93,297,35.22c0,13.51-8.55,22.07-19.23,22.07-14.47,0-23.31-13.08-23.31-26.6C254.42,19.15,261.43,9,273.71,9Zm1,50.5c16.29,0,27.6-10.62,27.6-27.05,0-15.12-11.46-25.87-26.36-25.87s-26.79,11-26.79,26.24C249.11,48.22,258.79,59.5,274.66,59.5Z" transform="translate(-6.9 -4.06)"/><path class="cls-1" d="M317,12.72c0-2.76,1.48-2.62,4-2.62,7,0,13.57,2.91,13.57,11.56s-6.81,10.07-9.87,10.07c-3.34,0-7.74.34-7.74-1v-18Zm14,19.57c5-2,9-6.73,9-12.26,0-13.7-15.71-12.28-16.85-12.28-3.71,0-7.73.29-11.81,0.29a39,39,0,0,1-4.54-.29,1.22,1.22,0,0,0-1.41.86c0,2.42,6.09-.5,6.09,6.32V51c0,5.4-5.18,4.41-5.18,6.19A0.74,0.74,0,0,0,307,58c2.69,0,5.38-.29,8.05-0.29,5.89,0,7.51.29,8.16,0.29s1.2,0.14,1.2-.57c0-2.42-7.38-.21-7.38-6.34v-15c0-.71-0.43-2,1.83-2,8,0,6.9-.21,9.46,3.76l7.89,12.44c2.71,4.06,5.47,7.69,10.64,7.69,0.64,0,6.26,0,6.26-.85,0-1.71-5.12.93-10.23-6.91Z" transform="translate(-6.9 -4.06)"/><path class="cls-1" d="M351.71,12.2c-1.84-3.06-5.32-2.2-5.32-3.4a1.07,1.07,0,0,1,.93-1.07c1.91,0,3.26.3,8.08,0.3,2.33,0,4.25-.3,5-0.3,0.49,0,1.34.07,1.34,0.71,0,1.2-3.33,1.27-3.33,3.33a5.81,5.81,0,0,0,1.28,2.91l8.55,13.7c0.56,0.85,1,1.28,1.41,1.28s0.77-.5,1.33-1.42l7.3-11.86a6.7,6.7,0,0,0,1.49-3.9c0-3.48-5.31-2-5.31-3.69,0-.92.7-1.07,1.48-1.07,1.7,0,3.48.3,5.17,0.3,2.05,0,4.1-.3,6.16-0.3a0.91,0.91,0,0,1,.78.85c0,0.78-1.19,1.07-1.7,1.35-1.9,1.13-2.83,3.12-4,4.9l-9.91,15.47c-1.14,1.77-1.7,2.13-1.7,3.19V50.89c0,6.18,5.82,4.19,5.82,6.4,0,0.64-.65.71-1.63,0.71s-5.19-.31-7.78-0.31c-3.17,0-5.73.31-6.37,0.31s-1.06-.07-1.06-0.85c0-2,5.46-.14,5.46-5.19V34.77c0-1.34-1.06-2.77-1.62-3.61Z" transform="translate(-6.9 -4.06)"/><path class="cls-1" d="M241,51.42c0.35,6,5.6,3.34,5.6,5.82,0,0.71-.93.71-1.7,0.71-1.35,0-3.83-.31-6.65-0.31-2.19,0-4.47.31-6.14,0.31a0.65,0.65,0,0,1-.78-0.64c0-2.13,4.47-.57,4.39-5.81L233.82,24c0-1.78-.35-2.77-0.78-2.77s-1.15.64-1.86,2.13L216.51,53.28c-0.36.63-1.49,3.54-2.21,3.54s-1.2-1.56-1.42-2.06l-15.1-31.61a1,1,0,0,0-.86-0.78c-0.2,0-.43.35-0.48,1.07l-2.08,24.86c-0.36,9.43,6.36,6.31,6.36,8.86,0,0.71-.78.78-1.78,0.78s-4.1-.31-6.19-0.31c-3.68,0-4.89.31-6.26,0.31a0.72,0.72,0,0,1-.71-0.85c0-2.41,4.53.5,5-6.89,0.86-11.57,1.71-19.1,1.71-26.62,0-16.68-5.49-12.71-5.49-15.12,0-.64.56-0.78,1.2-0.78,1.27,0,2.55.31,3.9,0.31s2.53-.31,3.78-0.31c1,0,1.14,1.2,1.49,2l16.93,36.05c0.79,1.49,1.06,2.13,1.57,2.13,0.36,0,1.06-1.49,2.2-3.83L235,10.1c0.41-.78,1-2.48,1.82-2.41s3,0.31,3.31.31c1.64,0,2.27-.31,3.4-0.31a0.8,0.8,0,0,1,.71.85c0,2.27-5.68-.78-5.39,7.67Z" transform="translate(-6.9 -4.06)"/><path class="cls-1" d="M154.84,28.43c0,2.42-.14,2.42,2.69,2.42h7.65c7.34,0,5.45-5.69,7.13-5.69,0.56,0,.77.78,0.77,1.35,0,2.49-.09,4.9-0.09,7.14,0,1.84.09,3.69,0.09,5.61a0.75,0.75,0,0,1-.77.92c-2.18,0,.21-6.25-5.71-6.25H156.12c-1.49,0-1.27,1.21-1.27,2.27V49.27c0,4.2-.56,5.9,5.38,5.9,16.32,0,18.73-7.32,19.65-7.32a0.8,0.8,0,0,1,.56.85c0,2.55-1.84,5-3.53,6.9C174.63,58.17,173.07,58,170,58c-5.38,0-10.75-.44-16.12-0.3-2.82.08-5.79,0.3-8.61,0.3-0.64,0-1.06-.15-1.06-0.72,0.14-.86.85-0.72,3.12-1.87,1.83-.85,2-2.84,2-6.18V16.92c0-3.2,0-6.61-3.83-7.18-0.56-.14-2.12-0.28-2.12-1.1,0-.57.42-0.85,2.48-0.85,13.34,0,17,.3,20,0.3,1.41,0,7.9-.3,10.1-0.3,0.56,0,.7.71,0.7,1.55,0,7.88-1,8.45-1.41,8.45-1.71,0-.57-3.41-1.71-5-1.82-2.42-9.17-2-12-2-6.78,0-6.65-.29-6.65,4.47v13.2Z" transform="translate(-6.9 -4.06)"/><path class="cls-1" d="M153.31,94.87c0,2-.31,3.23,2.06,3.23,8.17,0,7.71-4.32,9-4.32,0.13,0,.36.1,0.36,0.73,0,2.57-1.94,5.27-4.65,5.27-5,0-6.81-.13-8.46-0.13-1,0-2.41.13-4.22,0.13-0.43,0-.63-0.17-0.63-0.36,0-1.52,2.5.26,2.5-3.75V80.07c0-2.8-3.73-1.91-3.73-3.07,0-.3.36-0.56,1.06-0.56,1.32,0,3.23.13,4.48,0.13,2.8,0,3.2-.13,3.72-0.13,0.69,0,.86,0,0.86.43,0,1.25-2.34,0-2.34,2.54V94.87Z" transform="translate(-6.9 -4.06)"/><path class="cls-1" d="M175.36,95.69c0,4.06,3.69,2.54,3.69,3.59,0,0.36-.3.49-1.05,0.49-1.22,0-2.44-.13-5-0.13-1.42,0-2.83.13-3.69,0.13a0.35,0.35,0,0,1-.36-0.4c0-1.15,2.37-.3,2.37-3.43V80.14c0-3-3.73-2.08-3.73-3.23,0-.56.82-0.46,1.12-0.46,1.29,0,2.57.13,3.72,0.13s2.37-.13,4.25-0.13c1,0,1.15.07,1.15,0.46,0,1.12-2.47-.06-2.47,3.07V95.69Z" transform="translate(-6.9 -4.06)"/><path class="cls-1" d="M187.21,81.29c0-4.55-3.49-2.73-3.49-4.35a0.45,0.45,0,0,1,.56-0.5,11.53,11.53,0,0,0,2,.13c2.8,0,5.6-.13,8.37-0.13,8.08,0,8.11,4.88,8.11,5.67a4.82,4.82,0,0,1-3.59,4.65v0.07c4,1,5.27,2.8,5.27,5.76,0,4.35-3,7.18-8.4,7.18-4.91,0-6.56-.13-8.21-0.13-0.79,0-1.65.13-2.34,0.13s-1.09-.06-1.09-0.53c0-1.09,2.83-.2,2.83-3.4V81.29Zm4.05,3.53c0,1.62.33,1.75,2.24,1.88h2c2.51,0,3.46-1.25,3.46-3.69a5.16,5.16,0,0,0-5.37-5.14c-2.24,0-2.31,1.25-2.31,3.13v3.82Zm0,9.59c0,3.13.86,4.05,4.05,4.05s4.91-2.14,4.91-5.34c0-2-1-4.94-7-4.94-1.94,0-2,.82-2,2.54v3.69Z" transform="translate(-6.9 -4.06)"/><path class="cls-1" d="M211.84,80.6c0-3.69-3.59-2.47-3.59-3.66a0.6,0.6,0,0,1,.72-0.5c1.51,0,1.78.13,3.86,0.13s4.45-.13,6.66-0.13c7.22,0,7.88,4.65,7.88,6.17a5,5,0,0,1-1.91,4.12c-1,.76-1.91,1.06-1.91,1.39s2.57,5,4.94,9.13a1.27,1.27,0,0,0,1.19.52c0.33,0,.66-0.2,1-0.2a0.46,0.46,0,0,1,.49.46c0,1-2.18,1.75-3.49,1.75-2.61,0-3.66-2.08-4.68-4l-2.77-5.2c-0.76-1.45-1.12-1.75-2.77-1.75s-1.55.23-1.55,1.38v5.7c0,3.53,3.26,2.18,3.26,3.36,0,0.3-.26.49-1,0.49-0.56,0-1.45-.13-2.83-0.13-1.78,0-3.43.13-5.08,0.13-0.36,0-1.05.1-1.05-.56,0-1.06,2.67,0,2.67-4.12V80.6Zm4.05,5.9c0,0.83,1.22.83,2.21,0.83,5,0,5.21-1.85,5.21-3.79,0-3.23-1.84-5.67-5.17-5.67-1.22,0-2.24,0-2.24,2V86.5Z" transform="translate(-6.9 -4.06)"/><path class="cls-1" d="M240.78,91.67c-0.56,0-1.25.13-2,2.3a9.42,9.42,0,0,0-.69,2.6c0,2.37,3.56,1.84,3.56,2.74,0,0.69-1,.46-1.71.46-1.05,0-2-.13-3.1-0.13s-1.94.13-2.9,0.13c-0.46,0-1,.07-1-0.36,0-.76,1.68-0.56,2.5-2.41l8.93-19.94c0.23-.53.4-1.15,0.83-1.15S245.56,76,246,77l8.9,20.17c1.06,2.34,2.83,1.06,2.83,2.14,0,0.56-.3.49-1.19,0.49-1.19,0-2.08-.13-4.25-0.13-1.45,0-2.67.13-3.62,0.13-0.59,0-1,.07-1-0.4,0-1,2.34-.59,2.34-2.6a5.65,5.65,0,0,0-.59-2.21c-1.09-2.57-1.25-2.9-2.11-2.9h-6.49Zm5.47-1.78c0.59,0,1.05,0,1.05-.3a3.11,3.11,0,0,0-.36-1.22l-2.7-6c-0.2-.26-0.1-0.26-0.26-0.26a0.49,0.49,0,0,0-.36.4l-2.54,5.83a3.08,3.08,0,0,0-.36,1.22c0,0.33.46,0.3,1.05,0.3h4.48Z" transform="translate(-6.9 -4.06)"/><path class="cls-1" d="M263.43,80.6c0-3.69-3.59-2.47-3.59-3.66a0.6,0.6,0,0,1,.72-0.5c1.52,0,1.78.13,3.86,0.13s4.45-.13,6.66-0.13c7.22,0,7.88,4.65,7.88,6.17A5,5,0,0,1,277,86.73c-1,.76-1.91,1.06-1.91,1.39s2.8,5,5.17,9.13a1.27,1.27,0,0,0,1.19.52c0.33,0,.66-0.2,1-0.2A0.46,0.46,0,0,1,283,98c0,1-2.17,1.75-3.49,1.75-2.61,0-3.66-2.08-4.68-4L272,90.59c-0.76-1.45-1.35-1.75-3-1.75s-1.55.23-1.55,1.38v5.7c0,3.53,3.26,2.18,3.26,3.36,0,0.3-.26.49-1,0.49-0.56,0-1.45-.13-2.84-0.13-1.78,0-3.43.13-5.07,0.13-0.36,0-1.06.1-1.06-.56,0-1.06,2.67,0,2.67-4.12V80.6Zm4.05,5.9c0,0.83,1.22.83,2.21,0.83,5,0,5.21-1.85,5.21-3.79,0-3.23-1.84-5.67-5.17-5.67-1.22,0-2.24,0-2.24,2V86.5Z" transform="translate(-6.9 -4.06)"/><path class="cls-1" d="M293.74,95.69c0,4.06,3.69,2.54,3.69,3.59,0,0.36-.3.49-1.06,0.49-1.22,0-2.44-.13-5-0.13-1.42,0-2.83.13-3.69,0.13a0.35,0.35,0,0,1-.36-0.4c0-1.15,2.37-.3,2.37-3.43V80.14c0-3-3.72-2.08-3.72-3.23,0-.56.82-0.46,1.12-0.46,1.28,0,2.57.13,3.72,0.13s2.38-.13,4.26-0.13c1,0,1.15.07,1.15,0.46,0,1.12-2.47-.06-2.47,3.07V95.69Z" transform="translate(-6.9 -4.06)"/><path class="cls-1" d="M309.54,84.92c0,1.42,0,1.65,1.42,1.65H313c2.83,0,2.93-3,3.59-3,0.23,0,.59-0.07.63,0.82l0.23,5.87c0,0.43.23,1.61-.56,1.61-1.06,0-.13-3.49-3.56-3.49h-2.44c-1.52,0-1.39.4-1.39,2.31v4.22c0,2-.13,3.23,2.24,3.23,8.17,0,7.71-4.32,9-4.32,0.13,0,.36.1,0.36,0.73,0,2.57-1.95,5.27-4.65,5.27-5,0-7-.13-8.63-0.13-1,0-2.41.13-4.22,0.13-0.43,0-.63-0.17-0.63-0.36,0-1.52,2.5.26,2.5-3.75V80.24c0-3-3.72-1.91-3.72-3.23a0.63,0.63,0,0,1,.72-0.56c1.35,0,3.73.13,8.77,0.13,2.34,0,4.61-.13,7.51-0.13a0.63,0.63,0,0,1,.66.63l0.13,3.26c0,0.43.2,1.52-.56,1.52-1.55,0,1-3.85-5.34-3.85-4,0-4.12,0-4.12,2.31v4.62Z" transform="translate(-6.9 -4.06)"/><path class="cls-1" d="M326.65,93c-0.1-.46-0.43-1.42.4-1.42,0.52,0,.59.3,0.72,0.72,1.06,3.16,3.1,6.16,6.76,6.16,2.57,0,4.55-1.58,4.55-4.22,0-2.8-2.08-3.23-7.38-5.57-2.83-1.25-4.78-2.54-4.78-6a6.26,6.26,0,0,1,6.49-6.56c2.7,0,4.09,1.28,5.08,1.28,0.43,0,1.25-.53,1.68-0.53s0.4,0.5.46,1.25L341,82.58c0.07,0.73,0,1.12-.76,1.12s-1.25-6.13-6.92-6.13c-2.17,0-3.66,1.25-3.66,3.46s1.82,2.64,6.23,4.58c3.53,1.55,5.7,3,5.7,7.15a7,7,0,0,1-7.35,7.25c-2,0-3.69-.79-5.6-1.22-0.82-.2-0.79-0.46-1-1.25Z" transform="translate(-6.9 -4.06)"/><path class="cls-1" d="M361.08,84.5c0-.62-0.69-1.21-0.69-3.19,0-3.13,2.53-5.13,5.53-5.13,2.17,0,4.21,1.21,4.71,1.21s0.59-.49,1.09-0.49c0.33,0,.36.16,0.36,0.66a43.92,43.92,0,0,0,.46,5.07,0.47,0.47,0,0,1-.49.59c-0.3,0-.46-0.26-0.62-0.79-0.79-2.6-2.57-5-5.5-5a2.15,2.15,0,0,0-2.3,2.44c0,4.71,10.93,14,11.75,14a4.67,4.67,0,0,0,1.28-3.35c0-4.11-3.75-2.4-3.75-3.72,0-.26.17-0.46,0.63-0.46s1.32,0.13,3.39.13c1.61,0,2.21-.13,2.73-0.13a0.42,0.42,0,0,1,.53.43c0,0.76-1.12.26-1.28,1.42a15,15,0,0,1-2,6.45c0,1.32,3.56,3.06,4.41,3.06a8,8,0,0,0,1.68-.23,0.37,0.37,0,0,1,.46.39c0,0.53-1.68,2.21-4.08,2.21-2,0-4.28-1.64-5.36-2.56-2,1.81-5.46,2.56-8.1,2.56-7.44,0-9.84-5.1-9.84-8C356,86.22,361.08,84.87,361.08,84.5ZM372.7,96.84c0-.76-7.63-5.3-10.34-10.23a1.76,1.76,0,0,0-.89-1A3.24,3.24,0,0,0,359,89c0,3.62,4.61,9,9.68,9C370,98.06,372.7,97.44,372.7,96.84Z" transform="translate(-6.9 -4.06)"/><path class="cls-1" d="M152.84,133c0,3.64,3.31,2.28,3.31,3.23,0,0.33-.27.45-0.95,0.45-1.1,0-2.19-.12-4.5-0.12-1.27,0-2.54.12-3.31,0.12a0.31,0.31,0,0,1-.33-0.35c0-1,2.13-.27,2.13-3.08V119c0-2.69-3.34-1.86-3.34-2.9,0-.5.74-0.42,1-0.42,1.15,0,2.31.12,3.35,0.12s2.13-.12,3.82-0.12c0.89,0,1,.06,1,0.42,0,1-2.22-.06-2.22,2.75V133Z" transform="translate(-6.9 -4.06)"/><path class="cls-1" d="M162.55,121.41c0-5.68-3.31-3.76-3.31-5.18a0.46,0.46,0,0,1,.5-0.5c0.56,0,1.09.12,1.66,0.12,0.77,0,1.54-.12,3.11-0.12,0.95,0,.59.21,1.12,0.77l11.9,13.05a2.48,2.48,0,0,0,.92.77c0.18,0,.23-0.36.23-1.09v-9.85c0-2.69-3.61-2.16-3.61-3.14a0.45,0.45,0,0,1,.47-0.5c0.47,0,1.33.12,3.37,0.12,1.87,0,2.9-.12,3.17-0.12,0.56,0,.56.3,0.56,0.39,0,0.89-2.52.17-2.52,3.28V136c0,0.65,0,.89-0.35.89a0.89,0.89,0,0,1-.77-0.42l-14.23-15.39a0.91,0.91,0,0,0-.53-0.38c-0.18,0-.24.21-0.24,0.48v10.06c0,5.68,3.79,3.67,3.79,5.06,0,0.41-.74.38-1.12,0.38-1.45,0-2.46-.12-3.49-0.12s-1.75.12-2.55,0.12c-0.33,0-.92.15-0.92-0.35,0-1.18,2.84-.65,2.84-3.67V121.41Z" transform="translate(-6.9 -4.06)"/><path class="cls-1" d="M192.62,123.33c0,1.27,0,1.48,1.27,1.48h1.86c2.55,0,2.63-2.72,3.23-2.72,0.21,0,.53-0.06.56,0.74l0.21,5.27c0,0.38.21,1.45-.5,1.45-0.95,0-.12-3.14-3.2-3.14h-2.19c-1.36,0-1.24.35-1.24,2.07v4.38c0,3.29,3.35,2.55,3.35,3.34,0,0.59-.62.47-1.36,0.47-1.12,0-2.22-.12-3.52-0.12-0.92,0-2.16.12-3.79,0.12-0.38,0-.56-0.14-0.56-0.32,0-1.36,2.25.24,2.25-3.38V119.13c0-2.66-3.35-1.72-3.35-2.9a0.57,0.57,0,0,1,.65-0.5c1.21,0,3.34.12,7.87,0.12,2.1,0,4.14-.12,6.75-0.12a0.57,0.57,0,0,1,.59.56l0.12,2.93c0,0.39.18,1.36-.5,1.36-1.39,0,.92-3.46-4.79-3.46-3.58,0-3.7,0-3.7,2.07v4.14Z" transform="translate(-6.9 -4.06)"/><path class="cls-1" d="M215.77,115.45c5.77-.06,10.18,3.76,10.18,10,0,4.14-1.8,11.39-11.24,11.39-5.95,0-9.95-4-9.95-10C204.76,120.4,208.7,115.52,215.77,115.45Zm-0.21,20.16c5.09-.09,6.75-4.05,6.75-9,0-6.54-3.61-10-7.43-9.91-5,.09-6.48,4.17-6.48,8.46S210.26,135.7,215.56,135.61Z" transform="translate(-6.9 -4.06)"/><path class="cls-1" d="M231.93,119.45c0-3.31-3.23-2.22-3.23-3.28a0.55,0.55,0,0,1,.65-0.45c1.36,0,1.6.12,3.46,0.12s4-.12,6-0.12c6.48,0,7.07,4.17,7.07,5.53a4.52,4.52,0,0,1-1.72,3.7c-0.86.68-1.71,0.95-1.71,1.24s2.51,4.47,4.64,8.2a1.13,1.13,0,0,0,1.07.48c0.3,0,.59-0.18.89-0.18a0.41,0.41,0,0,1,.45.41c0,0.92-2,1.57-3.14,1.57-2.34,0-3.29-1.86-4.2-3.58l-2.48-4.68a2.41,2.41,0,0,0-2.69-1.57c-1.57,0-1.39.21-1.39,1.24v5.12c0,3.17,2.93,2,2.93,3,0,0.27-.24.45-0.92,0.45-0.5,0-1.3-.12-2.55-0.12-1.6,0-3.07.12-4.55,0.12-0.33,0-.95.09-0.95-0.5,0-.95,2.4,0,2.4-3.7v-13Zm3.64,5.3c0,0.74,1.09.74,2,.74,4.5,0,4.67-1.66,4.67-3.4,0-2.9-1.66-5.09-4.65-5.09-1.1,0-2,0-2,1.77v6Z" transform="translate(-6.9 -4.06)"/><path class="cls-1" d="M256.26,131.64c-0.18,5.06,3.08,3.34,3.08,4.56,0,0.12.12,0.47-.71,0.47-1.06,0-1.69-.12-3-0.12s-2.49.12-2.93,0.12a0.46,0.46,0,0,1-.56-0.42c0-1.06,2.43-.32,2.54-3.43l0.41-11.9c0.18-4.88-3-3.49-3-4.79a0.41,0.41,0,0,1,.35-0.42c0.38,0,.83.12,1.78,0.12,0.68,0,1.78-.12,2.75-0.12,0.33,0,.63,0,1,0.86l6.51,14.21a0.6,0.6,0,0,0,.38.48,1.23,1.23,0,0,0,.47-0.62l6.87-14.32a0.72,0.72,0,0,1,.74-0.59c0.71,0,1.27.12,1.72,0.12s1.1-.12,1.93-0.12,0.86,0.12.86,0.36c0,1.06-2.9-.09-2.78,3.31l0.5,13.11c0.15,3.88,2.87,2.58,2.87,3.67,0,0.5-.38.5-1.42,0.5-0.86,0-1.69-.12-2.55-0.12-1.93,0-2.63.12-3.31,0.12s-1.36.09-1.36-.45c0-1,2.31,0,2.13-3.31l-0.44-9c0-.89-0.06-1.33-0.24-1.33a4.35,4.35,0,0,0-.92,1.57l-5.59,11.69a1,1,0,0,1-.77.83,1,1,0,0,1-.74-0.83l-5.74-12.75a1,1,0,0,0-.32-0.5c-0.21,0-.21.53-0.21,0.74Z" transform="translate(-6.9 -4.06)"/><path class="cls-1" d="M287.4,129.4c-0.5,0-1.13.12-1.81,2.07a8.55,8.55,0,0,0-.62,2.34c0,2.13,3.19,1.66,3.19,2.45,0,0.62-.92.42-1.54,0.42-0.95,0-1.83-.12-2.78-0.12s-1.75.12-2.6,0.12c-0.42,0-.89.06-0.89-0.32,0-.68,1.51-0.51,2.25-2.16l8-17.91a1.33,1.33,0,0,1,.74-1c0.27,0,.33.06,0.71,0.95l8,18.11c0.95,2.1,2.55.95,2.55,1.92,0,0.5-.27.45-1.06,0.45-1.07,0-1.86-.12-3.82-0.12-1.3,0-2.4.12-3.26,0.12-0.53,0-.92.06-0.92-0.35,0-.86,2.1-0.53,2.1-2.34a5.13,5.13,0,0,0-.53-2c-1-2.31-1.13-2.6-1.89-2.6H287.4Zm4.91-1.6c0.53,0,.95,0,0.95-0.27a2.76,2.76,0,0,0-.32-1.09l-2.43-5.36c-0.17-.24-0.09-0.24-0.23-0.24a0.43,0.43,0,0,0-.33.36l-2.28,5.24a2.75,2.75,0,0,0-.33,1.09c0,0.3.41,0.27,0.95,0.27h4Z" transform="translate(-6.9 -4.06)"/><path class="cls-1" d="M310.38,119.07c0-1.42-.3-1.57-1.51-1.57h-2.33c-3.34,0-2.46,3.88-3.79,3.88-0.62,0-.44-0.65-0.38-1l0.47-3.9c0-.3,0-0.71.47-0.71,2.75,0,4.58.12,8.9,0.12s5.55-.12,8.3-0.12c0.44,0,.44.42,0.47,0.71l0.32,2.72c0.06,0.35.39,1.51-.38,1.51-1.18,0-.24-3.28-3.64-3.17h-2.19c-1.21,0-1.08.15-1.08,1.57v13.38c0,3.64,3.79,2.78,3.79,3.61s-0.59.62-1.45,0.62c-1.18,0-2.16-.12-4.14-0.12s-3,.12-4.14.12c-0.53,0-1,0-1-.62,0-1.15,3.34.27,3.34-3.25V119.07Z" transform="translate(-6.9 -4.06)"/><path class="cls-1" d="M331,133c0,3.64,3.31,2.28,3.31,3.23,0,0.33-.26.45-0.94,0.45-1.1,0-2.19-.12-4.5-0.12-1.28,0-2.55.12-3.32,0.12a0.31,0.31,0,0,1-.32-0.35c0-1,2.13-.27,2.13-3.08V119c0-2.69-3.34-1.86-3.34-2.9,0-.5.74-0.42,1-0.42,1.15,0,2.31.12,3.34,0.12s2.13-.12,3.82-0.12c0.89,0,1,.06,1,0.42,0,1-2.22-.06-2.22,2.75V133Z" transform="translate(-6.9 -4.06)"/><path class="cls-1" d="M347.85,115.45c5.77-.06,10.18,3.76,10.18,10,0,4.14-1.81,11.39-11.25,11.39-5.95,0-9.95-4-9.95-10C336.84,120.4,340.77,115.52,347.85,115.45Zm-0.21,20.16c5.09-.09,6.75-4.05,6.75-9,0-6.54-3.61-10-7.43-9.91-5,.09-6.48,4.17-6.48,8.46S342.34,135.7,347.64,135.61Z" transform="translate(-6.9 -4.06)"/><path class="cls-1" d="M363.57,121.41c0-5.68-3.31-3.76-3.31-5.18a0.46,0.46,0,0,1,.5-0.5c0.56,0,1.09.12,1.66,0.12,0.77,0,1.54-.12,3.11-0.12,0.95,0,.59.21,1.12,0.77l11.9,13.05a2.44,2.44,0,0,0,.92.77c0.17,0,.24-0.36.24-1.09v-9.85c0-2.69-3.61-2.16-3.61-3.14a0.45,0.45,0,0,1,.48-0.5c0.47,0,1.33.12,3.37,0.12,1.87,0,2.9-.12,3.17-0.12,0.56,0,.56.3,0.56,0.39,0,0.89-2.51.17-2.51,3.28V136c0,0.65,0,.89-0.36.89a0.89,0.89,0,0,1-.77-0.42l-14.24-15.39a0.9,0.9,0,0,0-.53-0.38c-0.18,0-.24.21-0.24,0.48v10.06c0,5.68,3.79,3.67,3.79,5.06,0,0.41-.74.38-1.12,0.38-1.45,0-2.46-.12-3.49-0.12s-1.75.12-2.54,0.12c-0.32,0-.92.15-0.92-0.35,0-1.18,2.84-.65,2.84-3.67V121.41Z" transform="translate(-6.9 -4.06)"/><path class="cls-1" d="M150,155.19c0-1.11-.23-1.22-1.18-1.22h-1.22c-2.61,0-1.92,3-3,3-0.48,0-.35-0.51-0.3-0.81l0.37-3.05c0-.23,0-0.55.37-0.55,2.15,0,3,.09,6.35.09s4.92-.09,7.07-0.09c0.35,0,.35.32,0.37,0.55l0.25,2.13c0,0.28.3,1.18-.3,1.18-0.92,0-.18-2.57-2.84-2.47h-2c-0.95,0-1.18.12-1.18,1.22v10.45c0,2.84,3,2.17,3,2.82s-0.46.49-1.13,0.49c-0.92,0-1.69-.09-3.24-0.09s-2.31.09-3.23,0.09c-0.42,0-.81,0-0.81-0.49,0-.9,2.61.21,2.61-2.54V155.19Z" transform="translate(-6.9 -4.06)"/><path class="cls-1" d="M173.3,158.52c0,1,0,1.16,1,1.16h1.46c2,0,2.06-2.13,2.52-2.13,0.16,0,.42,0,0.44.57l0.16,4.12c0,0.3.16,1.13-.39,1.13-0.74,0-.09-2.45-2.5-2.45h-1.71c-1.06,0-1,.28-1,1.62v3c0,1.43-.09,2.27,1.57,2.27,5.73,0,5.4-3,6.28-3,0.09,0,.26.07,0.26,0.51,0,1.8-1.36,3.7-3.26,3.7-3.51,0-4.9-.09-6.05-0.09-0.72,0-1.69.09-3,.09-0.3,0-.44-0.12-0.44-0.26,0-1.06,1.76.19,1.76-2.63V155.24c0-2.08-2.61-1.34-2.61-2.27a0.44,0.44,0,0,1,.51-0.39c0.95,0,2.61.09,6.15,0.09,1.64,0,3.24-.09,5.27-0.09a0.44,0.44,0,0,1,.46.44l0.09,2.29c0,0.3.14,1.06-.39,1.06-1.08,0,.72-2.7-3.74-2.7-2.79,0-2.89,0-2.89,1.62v3.24Z" transform="translate(-6.9 -4.06)"/><path class="cls-1" d="M205.42,157.55c0,0.23.11,0.76-.28,0.76a1.09,1.09,0,0,1-.69-0.79c-1.16-2.22-3.19-4.23-5.87-4.23-3.4,0-5.27,3.23-5.27,6.33,0,3.25,1.85,7.83,6.26,7.83,3.58,0,5.15-3,5.75-3a0.34,0.34,0,0,1,.32.25c0,0.93-2.45,4.42-7.37,4.42-6.77,0-7.81-5.92-7.81-7.74,0-3.88,2.38-9,8.2-9,2.8,0,4.57,1.41,5.27,1.41,0.44,0,.46-0.76.78-0.76,0.12,0,.28,0,0.28.14Z" transform="translate(-6.9 -4.06)"/><path class="cls-1" d="M231.31,165.68c0,2.94,2.4,2.08,2.4,3,0,0.3-.19.28-0.49,0.28-0.76,0-2.12-.09-3.07-0.09s-1.73.09-2.91,0.09c-0.32,0-.46-0.09-0.46-0.26,0-.81,1.69-0.18,1.69-2.42V162.1c0-1,.07-1.23-0.95-1.23h-6.17c-1.06,0-1.13.23-1.13,1.25v3.63c0,2.86,2.87,2,2.87,2.86,0,0.14,0,.32-0.7.32-0.95,0-1.71-.09-3.37-0.09-1,0-1.94.09-3.1,0.09-0.28,0-.51,0-0.51-0.34,0-.93,2-0.1,2-3V155.33c0-2.52-2.61-1.5-2.61-2.38,0-.35.69-0.37,1.13-0.37,0.69,0,1.39.09,2.59,0.09,1.39,0,2.31-.09,3-0.09,0.32,0,.53.12,0.53,0.35,0,0.72-1.78,0-1.78,2.1v3.67c0,0.62.09,0.93,0.58,0.93h6.86a0.85,0.85,0,0,0,.81-1v-3.26c0-2.54-2.54-1.71-2.54-2.38,0-.42.21-0.37,0.53-0.37,0.95,0,1.55.09,3,.09,1.2,0,2.06-.09,3-0.09,0.39,0,.49.07,0.49,0.28,0,0.88-1.66-.11-1.66,2.15v10.67Z" transform="translate(-6.9 -4.06)"/><path class="cls-1" d="M245.59,157c0-4.43-2.59-2.93-2.59-4a0.36,0.36,0,0,1,.39-0.39c0.44,0,.86.09,1.29,0.09,0.6,0,1.2-.09,2.42-0.09,0.74,0,.46.16,0.88,0.6l9.29,10.19a1.94,1.94,0,0,0,.72.6c0.14,0,.18-0.28.18-0.85v-7.69c0-2.1-2.82-1.69-2.82-2.45a0.35,0.35,0,0,1,.37-0.39c0.37,0,1,.09,2.63.09s2.26-.09,2.47-0.09c0.44,0,.44.23,0.44,0.3,0,0.69-2,.14-2,2.57v13c0,0.51,0,.7-0.28.7a0.7,0.7,0,0,1-.6-0.33l-11.11-12a0.71,0.71,0,0,0-.41-0.3c-0.14,0-.18.16-0.18,0.37v7.85c0,4.44,3,2.87,3,4,0,0.32-.58.3-0.88,0.3-1.13,0-1.92-.09-2.73-0.09s-1.36.09-2,.09c-0.25,0-.71.12-0.71-0.28,0-.92,2.22-0.51,2.22-2.86V157Z" transform="translate(-6.9 -4.06)"/><path class="cls-1" d="M279,152.37c4.5,0,7.95,2.94,7.95,7.84,0,3.24-1.41,8.9-8.78,8.9-4.65,0-7.77-3.12-7.77-7.81C270.36,156.23,273.44,152.42,279,152.37Zm-0.17,15.74c4-.07,5.27-3.17,5.27-7,0-5.11-2.82-7.79-5.8-7.74-3.9.07-5.06,3.26-5.06,6.6S274.66,168.18,278.8,168.11Z" transform="translate(-6.9 -4.06)"/><path class="cls-1" d="M301.22,165.5c0,1.43-.09,2.27,1.57,2.27,5.73,0,5.41-3,6.28-3,0.09,0,.25.07,0.25,0.51,0,1.8-1.36,3.7-3.26,3.7-3.51,0-4.9-.09-6.05-0.09-0.72,0-1.69.09-3,.09-0.3,0-.44-0.12-0.44-0.26,0-1.06,1.76.19,1.76-2.63V155.12c0-2-2.61-1.34-2.61-2.15,0-.21.25-0.39,0.74-0.39,0.92,0,2.26.09,3.14,0.09,2,0,2.24-.09,2.61-0.09s0.6,0,.6.3c0,0.88-1.64,0-1.64,1.78V165.5Z" transform="translate(-6.9 -4.06)"/><path class="cls-1" d="M326.57,152.37c4.51,0,7.95,2.94,7.95,7.84,0,3.24-1.41,8.9-8.78,8.9-4.64,0-7.76-3.12-7.76-7.81C318,156.23,321,152.42,326.57,152.37Zm-0.16,15.74c4-.07,5.27-3.17,5.27-7,0-5.11-2.82-7.79-5.8-7.74-3.91.07-5.06,3.26-5.06,6.6S322.27,168.18,326.41,168.11Z" transform="translate(-6.9 -4.06)"/><path class="cls-1" d="M359.11,158c0,0.3-.14.41-0.58,0.41s-0.51-5-6.58-5c-2.15,0-5.2,1.41-5.2,7.25,0,3.16,1.62,7.37,5.36,7.37,4.16,0,4.23-1.94,4.23-3.28,0-3.6-2.75-2-2.75-2.91,0-.67.74-0.49,1.13-0.49,1.09,0,2.15.09,3.24,0.09,0.85,0,1.66-.09,2.49-0.09a0.28,0.28,0,0,1,.25.33c0,1-1.59-.25-1.59,2.71,0,0.95.07,1.59,0.07,1.92a0.53,0.53,0,0,1-.23.6,15.85,15.85,0,0,1-7.28,2.26c-6.77,0-7.81-5.92-7.81-7.74,0-3.88,2.38-9,8.21-9,3.21,0,5.15,1.5,5.77,1.5s0.56-.65.92-0.65,0.35,0.51.35,0.88V158Z" transform="translate(-6.9 -4.06)"/><path class="cls-1" d="M371.45,154.68c-0.9-1.66-2.31-1.08-2.31-1.83,0-.28.28-0.28,0.81-0.28s1,0.09,2.13.09c1,0,2,0,3.37-.09a0.3,0.3,0,0,1,.39.3c0,0.53-1.27.34-1.27,1.13a2.44,2.44,0,0,0,.32,1.06l2.08,4.29c0.37,0.76.53,1.07,0.72,1.07a1.11,1.11,0,0,0,.58-0.69l2.1-3.82a2.28,2.28,0,0,0,.42-1.27c0-1.52-2.24-1-2.24-1.73a0.36,0.36,0,0,1,.44-0.35c0.3,0,.79.09,2,0.09,1.76,0,2-.09,2.66-0.09,0.3,0,.42.09,0.42,0.25,0,0.62-1,.16-2.4,2.7l-3,5.73a2.44,2.44,0,0,0-.3,1.46v3.44c0,2.91,2.84,1.32,2.84,2.5,0,0.26-.35.28-0.74,0.28-0.19,0-.56-0.09-3.44-0.09-2.08,0-2.75.09-3.4,0.09-0.37,0-.62,0-0.62-0.26,0-1,2.52.23,2.52-2.7v-3a2.31,2.31,0,0,0-.37-1.45Z" transform="translate(-6.9 -4.06)"/></svg>